<mxfile host="app.diagrams.net" modified="2021-10-14T12:46:19.076Z" agent="5.0 (Macintosh; Intel Mac OS X 10_15_7) AppleWebKit/537.36 (KHTML, like Gecko) Chrome/94.0.4606.71 Safari/537.36" etag="grTo3afRKY618GF73lKk" version="15.0.6" type="github">
  <diagram id="TrzkEA1gaFzgW9GWMzHO" name="Page-1">
    <mxGraphModel dx="2082" dy="1980" grid="1" gridSize="10" guides="1" tooltips="1" connect="1" arrows="1" fold="1" page="1" pageScale="1" pageWidth="827" pageHeight="1169" math="0" shadow="0">
      <root>
        <mxCell id="0" />
        <mxCell id="1" parent="0" />
        <mxCell id="jrEgK30Qe1zSZla3EbFV-1" value="atlas_event" style="swimlane;html=1;fontStyle=1;align=center;verticalAlign=top;childLayout=stackLayout;horizontal=1;startSize=26;horizontalStack=0;resizeParent=1;resizeLast=0;collapsible=1;marginBottom=0;swimlaneFillColor=#ffffff;rounded=0;shadow=0;comic=0;labelBackgroundColor=none;strokeWidth=1;fillColor=none;fontFamily=Verdana;fontSize=12" vertex="1" parent="1">
          <mxGeometry x="30" y="-60" width="160" height="130" as="geometry" />
        </mxCell>
        <mxCell id="jrEgK30Qe1zSZla3EbFV-2" value="................" style="text;html=1;strokeColor=none;fillColor=none;align=left;verticalAlign=top;spacingLeft=4;spacingRight=4;whiteSpace=wrap;overflow=hidden;rotatable=0;points=[[0,0.5],[1,0.5]];portConstraint=eastwest;" vertex="1" parent="jrEgK30Qe1zSZla3EbFV-1">
          <mxGeometry y="26" width="160" height="26" as="geometry" />
        </mxCell>
        <mxCell id="jrEgK30Qe1zSZla3EbFV-3" value="+ e_group: bigint(20)" style="text;html=1;strokeColor=none;fillColor=none;align=left;verticalAlign=top;spacingLeft=4;spacingRight=4;whiteSpace=wrap;overflow=hidden;rotatable=0;points=[[0,0.5],[1,0.5]];portConstraint=eastwest;" vertex="1" parent="jrEgK30Qe1zSZla3EbFV-1">
          <mxGeometry y="52" width="160" height="26" as="geometry" />
        </mxCell>
        <mxCell id="jrEgK30Qe1zSZla3EbFV-4" value="+ id: bigint(20)" style="text;html=1;strokeColor=none;fillColor=none;align=left;verticalAlign=top;spacingLeft=4;spacingRight=4;whiteSpace=wrap;overflow=hidden;rotatable=0;points=[[0,0.5],[1,0.5]];portConstraint=eastwest;" vertex="1" parent="jrEgK30Qe1zSZla3EbFV-1">
          <mxGeometry y="78" width="160" height="26" as="geometry" />
        </mxCell>
        <mxCell id="jrEgK30Qe1zSZla3EbFV-5" value="................" style="text;html=1;strokeColor=none;fillColor=none;align=left;verticalAlign=top;spacingLeft=4;spacingRight=4;whiteSpace=wrap;overflow=hidden;rotatable=0;points=[[0,0.5],[1,0.5]];portConstraint=eastwest;" vertex="1" parent="jrEgK30Qe1zSZla3EbFV-1">
          <mxGeometry y="104" width="160" height="26" as="geometry" />
        </mxCell>
        <mxCell id="jrEgK30Qe1zSZla3EbFV-6" style="edgeStyle=orthogonalEdgeStyle;rounded=0;html=1;labelBackgroundColor=none;startArrow=none;startFill=0;startSize=8;endArrow=none;endFill=0;endSize=16;fontFamily=Verdana;fontSize=12;exitX=0;exitY=0.5;exitDx=0;exitDy=0;" edge="1" parent="1" source="jrEgK30Qe1zSZla3EbFV-9">
          <mxGeometry relative="1" as="geometry">
            <Array as="points">
              <mxPoint x="400" y="9" />
              <mxPoint x="190" y="9" />
            </Array>
            <mxPoint x="330" y="51" as="sourcePoint" />
            <mxPoint x="190" y="9" as="targetPoint" />
          </mxGeometry>
        </mxCell>
        <mxCell id="jrEgK30Qe1zSZla3EbFV-7" value="&lt;b&gt;&lt;font style=&quot;font-size: 14px&quot;&gt;n&lt;/font&gt;&lt;/b&gt;" style="text;html=1;resizable=0;points=[];align=center;verticalAlign=middle;labelBackgroundColor=#ffffff;fontSize=12;fontFamily=Verdana;fontColor=#FF3333;" vertex="1" connectable="0" parent="jrEgK30Qe1zSZla3EbFV-6">
          <mxGeometry x="0.8917" y="-1" relative="1" as="geometry">
            <mxPoint y="-2" as="offset" />
          </mxGeometry>
        </mxCell>
        <mxCell id="jrEgK30Qe1zSZla3EbFV-8" value="atlas_event_groups" style="swimlane;html=1;fontStyle=1;align=center;verticalAlign=top;childLayout=stackLayout;horizontal=1;startSize=26;horizontalStack=0;resizeParent=1;resizeLast=0;collapsible=1;marginBottom=0;swimlaneFillColor=#ffffff;rounded=0;shadow=0;comic=0;labelBackgroundColor=none;strokeWidth=1;fillColor=none;fontFamily=Verdana;fontSize=12" vertex="1" parent="1">
          <mxGeometry x="400" y="-40" width="205" height="268" as="geometry" />
        </mxCell>
        <mxCell id="jrEgK30Qe1zSZla3EbFV-9" value="+ id: bigint(20)" style="text;html=1;strokeColor=none;fillColor=none;align=left;verticalAlign=top;spacingLeft=4;spacingRight=4;whiteSpace=wrap;overflow=hidden;rotatable=0;points=[[0,0.5],[1,0.5]];portConstraint=eastwest;" vertex="1" parent="jrEgK30Qe1zSZla3EbFV-8">
          <mxGeometry y="26" width="205" height="26" as="geometry" />
        </mxCell>
        <mxCell id="jrEgK30Qe1zSZla3EbFV-10" value="+ g_name: varchar(2048)" style="text;html=1;strokeColor=none;fillColor=none;align=left;verticalAlign=top;spacingLeft=4;spacingRight=4;whiteSpace=wrap;overflow=hidden;rotatable=0;points=[[0,0.5],[1,0.5]];portConstraint=eastwest;" vertex="1" parent="jrEgK30Qe1zSZla3EbFV-8">
          <mxGeometry y="52" width="205" height="26" as="geometry" />
        </mxCell>
        <mxCell id="jrEgK30Qe1zSZla3EbFV-11" value="+ g_desc: text" style="text;html=1;strokeColor=none;fillColor=none;align=left;verticalAlign=top;spacingLeft=4;spacingRight=4;whiteSpace=wrap;overflow=hidden;rotatable=0;points=[[0,0.5],[1,0.5]];portConstraint=eastwest;" vertex="1" parent="jrEgK30Qe1zSZla3EbFV-8">
          <mxGeometry y="78" width="205" height="26" as="geometry" />
        </mxCell>
        <mxCell id="jrEgK30Qe1zSZla3EbFV-12" value="+ g_priority: smallint(4)" style="text;html=1;strokeColor=none;fillColor=none;align=left;verticalAlign=top;spacingLeft=4;spacingRight=4;whiteSpace=wrap;overflow=hidden;rotatable=0;points=[[0,0.5],[1,0.5]];portConstraint=eastwest;" vertex="1" parent="jrEgK30Qe1zSZla3EbFV-8">
          <mxGeometry y="104" width="205" height="26" as="geometry" />
        </mxCell>
        <mxCell id="jrEgK30Qe1zSZla3EbFV-13" value="+ g_state: varchar(128)" style="text;html=1;strokeColor=none;fillColor=none;align=left;verticalAlign=top;spacingLeft=4;spacingRight=4;whiteSpace=wrap;overflow=hidden;rotatable=0;points=[[0,0.5],[1,0.5]];portConstraint=eastwest;" vertex="1" parent="jrEgK30Qe1zSZla3EbFV-8">
          <mxGeometry y="130" width="205" height="26" as="geometry" />
        </mxCell>
        <mxCell id="jrEgK30Qe1zSZla3EbFV-14" value="" style="line;html=1;strokeWidth=1;fillColor=none;align=left;verticalAlign=middle;spacingTop=-1;spacingLeft=3;spacingRight=3;rotatable=0;labelPosition=right;points=[];portConstraint=eastwest;" vertex="1" parent="jrEgK30Qe1zSZla3EbFV-8">
          <mxGeometry y="156" width="205" height="8" as="geometry" />
        </mxCell>
        <mxCell id="jrEgK30Qe1zSZla3EbFV-15" value="+ gmt_create: timestamp" style="text;html=1;strokeColor=none;fillColor=none;align=left;verticalAlign=top;spacingLeft=4;spacingRight=4;whiteSpace=wrap;overflow=hidden;rotatable=0;points=[[0,0.5],[1,0.5]];portConstraint=eastwest;" vertex="1" parent="jrEgK30Qe1zSZla3EbFV-8">
          <mxGeometry y="164" width="205" height="26" as="geometry" />
        </mxCell>
        <mxCell id="jrEgK30Qe1zSZla3EbFV-16" value="+ gmt_modified: timestamp" style="text;html=1;strokeColor=none;fillColor=none;align=left;verticalAlign=top;spacingLeft=4;spacingRight=4;whiteSpace=wrap;overflow=hidden;rotatable=0;points=[[0,0.5],[1,0.5]];portConstraint=eastwest;" vertex="1" parent="jrEgK30Qe1zSZla3EbFV-8">
          <mxGeometry y="190" width="205" height="26" as="geometry" />
        </mxCell>
        <mxCell id="jrEgK30Qe1zSZla3EbFV-17" value="+ creator: varchar(256)" style="text;html=1;strokeColor=none;fillColor=none;align=left;verticalAlign=top;spacingLeft=4;spacingRight=4;whiteSpace=wrap;overflow=hidden;rotatable=0;points=[[0,0.5],[1,0.5]];portConstraint=eastwest;" vertex="1" parent="jrEgK30Qe1zSZla3EbFV-8">
          <mxGeometry y="216" width="205" height="26" as="geometry" />
        </mxCell>
        <mxCell id="jrEgK30Qe1zSZla3EbFV-18" value="+ modifier: varchar(256)" style="text;html=1;strokeColor=none;fillColor=none;align=left;verticalAlign=top;spacingLeft=4;spacingRight=4;whiteSpace=wrap;overflow=hidden;rotatable=0;points=[[0,0.5],[1,0.5]];portConstraint=eastwest;" vertex="1" parent="jrEgK30Qe1zSZla3EbFV-8">
          <mxGeometry y="242" width="205" height="26" as="geometry" />
        </mxCell>
        <mxCell id="jrEgK30Qe1zSZla3EbFV-19" value="&lt;b&gt;&lt;font style=&quot;font-size: 14px&quot;&gt;1&lt;/font&gt;&lt;/b&gt;" style="text;html=1;resizable=0;points=[];align=center;verticalAlign=middle;labelBackgroundColor=#ffffff;fontSize=12;fontFamily=Verdana;fontColor=#FF3333;" vertex="1" connectable="0" parent="1">
          <mxGeometry x="226" y="10" as="geometry">
            <mxPoint x="159" y="-4" as="offset" />
          </mxGeometry>
        </mxCell>
        <mxCell id="jrEgK30Qe1zSZla3EbFV-20" value="atlas_rule_set_details" style="swimlane;html=1;fontStyle=1;align=center;verticalAlign=top;childLayout=stackLayout;horizontal=1;startSize=26;horizontalStack=0;resizeParent=1;resizeLast=0;collapsible=1;marginBottom=0;swimlaneFillColor=#ffffff;rounded=0;shadow=0;comic=0;labelBackgroundColor=none;strokeWidth=1;fillColor=none;fontFamily=Verdana;fontSize=12" vertex="1" parent="1">
          <mxGeometry x="21" y="425" width="205" height="268" as="geometry" />
        </mxCell>
        <mxCell id="jrEgK30Qe1zSZla3EbFV-21" value="+ id: bigint(20)" style="text;html=1;strokeColor=none;fillColor=none;align=left;verticalAlign=top;spacingLeft=4;spacingRight=4;whiteSpace=wrap;overflow=hidden;rotatable=0;points=[[0,0.5],[1,0.5]];portConstraint=eastwest;" vertex="1" parent="jrEgK30Qe1zSZla3EbFV-20">
          <mxGeometry y="26" width="205" height="26" as="geometry" />
        </mxCell>
        <mxCell id="jrEgK30Qe1zSZla3EbFV-22" value="+ rule_set_id: bigint(20)" style="text;html=1;strokeColor=none;fillColor=none;align=left;verticalAlign=top;spacingLeft=4;spacingRight=4;whiteSpace=wrap;overflow=hidden;rotatable=0;points=[[0,0.5],[1,0.5]];portConstraint=eastwest;" vertex="1" parent="jrEgK30Qe1zSZla3EbFV-20">
          <mxGeometry y="52" width="205" height="26" as="geometry" />
        </mxCell>
        <mxCell id="jrEgK30Qe1zSZla3EbFV-23" value="+ rule_uuid: bigint(20)" style="text;html=1;strokeColor=none;fillColor=none;align=left;verticalAlign=top;spacingLeft=4;spacingRight=4;whiteSpace=wrap;overflow=hidden;rotatable=0;points=[[0,0.5],[1,0.5]];portConstraint=eastwest;" vertex="1" parent="jrEgK30Qe1zSZla3EbFV-20">
          <mxGeometry y="78" width="205" height="26" as="geometry" />
        </mxCell>
        <mxCell id="jrEgK30Qe1zSZla3EbFV-24" value="+ rule_code: smallint(4)" style="text;html=1;strokeColor=none;fillColor=none;align=left;verticalAlign=top;spacingLeft=4;spacingRight=4;whiteSpace=wrap;overflow=hidden;rotatable=0;points=[[0,0.5],[1,0.5]];portConstraint=eastwest;" vertex="1" parent="jrEgK30Qe1zSZla3EbFV-20">
          <mxGeometry y="104" width="205" height="26" as="geometry" />
        </mxCell>
        <mxCell id="jrEgK30Qe1zSZla3EbFV-25" value="+ rule_priority: smallint(4)" style="text;html=1;strokeColor=none;fillColor=none;align=left;verticalAlign=top;spacingLeft=4;spacingRight=4;whiteSpace=wrap;overflow=hidden;rotatable=0;points=[[0,0.5],[1,0.5]];portConstraint=eastwest;" vertex="1" parent="jrEgK30Qe1zSZla3EbFV-20">
          <mxGeometry y="130" width="205" height="26" as="geometry" />
        </mxCell>
        <mxCell id="jrEgK30Qe1zSZla3EbFV-26" value="" style="line;html=1;strokeWidth=1;fillColor=none;align=left;verticalAlign=middle;spacingTop=-1;spacingLeft=3;spacingRight=3;rotatable=0;labelPosition=right;points=[];portConstraint=eastwest;" vertex="1" parent="jrEgK30Qe1zSZla3EbFV-20">
          <mxGeometry y="156" width="205" height="8" as="geometry" />
        </mxCell>
        <mxCell id="jrEgK30Qe1zSZla3EbFV-27" value="+ gmt_create: timestamp" style="text;html=1;strokeColor=none;fillColor=none;align=left;verticalAlign=top;spacingLeft=4;spacingRight=4;whiteSpace=wrap;overflow=hidden;rotatable=0;points=[[0,0.5],[1,0.5]];portConstraint=eastwest;" vertex="1" parent="jrEgK30Qe1zSZla3EbFV-20">
          <mxGeometry y="164" width="205" height="26" as="geometry" />
        </mxCell>
        <mxCell id="jrEgK30Qe1zSZla3EbFV-28" value="+ gmt_modified: timestamp" style="text;html=1;strokeColor=none;fillColor=none;align=left;verticalAlign=top;spacingLeft=4;spacingRight=4;whiteSpace=wrap;overflow=hidden;rotatable=0;points=[[0,0.5],[1,0.5]];portConstraint=eastwest;" vertex="1" parent="jrEgK30Qe1zSZla3EbFV-20">
          <mxGeometry y="190" width="205" height="26" as="geometry" />
        </mxCell>
        <mxCell id="jrEgK30Qe1zSZla3EbFV-29" value="+ creator: varchar(256)" style="text;html=1;strokeColor=none;fillColor=none;align=left;verticalAlign=top;spacingLeft=4;spacingRight=4;whiteSpace=wrap;overflow=hidden;rotatable=0;points=[[0,0.5],[1,0.5]];portConstraint=eastwest;" vertex="1" parent="jrEgK30Qe1zSZla3EbFV-20">
          <mxGeometry y="216" width="205" height="26" as="geometry" />
        </mxCell>
        <mxCell id="jrEgK30Qe1zSZla3EbFV-30" value="+ modifier: varchar(256)" style="text;html=1;strokeColor=none;fillColor=none;align=left;verticalAlign=top;spacingLeft=4;spacingRight=4;whiteSpace=wrap;overflow=hidden;rotatable=0;points=[[0,0.5],[1,0.5]];portConstraint=eastwest;" vertex="1" parent="jrEgK30Qe1zSZla3EbFV-20">
          <mxGeometry y="242" width="205" height="26" as="geometry" />
        </mxCell>
        <mxCell id="jrEgK30Qe1zSZla3EbFV-31" value="atlas_rule_sets" style="swimlane;html=1;fontStyle=1;align=center;verticalAlign=top;childLayout=stackLayout;horizontal=1;startSize=26;horizontalStack=0;resizeParent=1;resizeLast=0;collapsible=1;marginBottom=0;swimlaneFillColor=#ffffff;rounded=0;shadow=0;comic=0;labelBackgroundColor=none;strokeWidth=1;fillColor=none;fontFamily=Verdana;fontSize=12" vertex="1" parent="1">
          <mxGeometry x="460" y="453" width="205" height="268" as="geometry" />
        </mxCell>
        <mxCell id="jrEgK30Qe1zSZla3EbFV-32" value="+ id: bigint(20)" style="text;html=1;strokeColor=none;fillColor=none;align=left;verticalAlign=top;spacingLeft=4;spacingRight=4;whiteSpace=wrap;overflow=hidden;rotatable=0;points=[[0,0.5],[1,0.5]];portConstraint=eastwest;" vertex="1" parent="jrEgK30Qe1zSZla3EbFV-31">
          <mxGeometry y="26" width="205" height="26" as="geometry" />
        </mxCell>
        <mxCell id="jrEgK30Qe1zSZla3EbFV-33" value="+ rs_name: varchar(512)" style="text;html=1;strokeColor=none;fillColor=none;align=left;verticalAlign=top;spacingLeft=4;spacingRight=4;whiteSpace=wrap;overflow=hidden;rotatable=0;points=[[0,0.5],[1,0.5]];portConstraint=eastwest;" vertex="1" parent="jrEgK30Qe1zSZla3EbFV-31">
          <mxGeometry y="52" width="205" height="26" as="geometry" />
        </mxCell>
        <mxCell id="jrEgK30Qe1zSZla3EbFV-34" value="+ rs_tags: varchar(1024)" style="text;html=1;strokeColor=none;fillColor=none;align=left;verticalAlign=top;spacingLeft=4;spacingRight=4;whiteSpace=wrap;overflow=hidden;rotatable=0;points=[[0,0.5],[1,0.5]];portConstraint=eastwest;" vertex="1" parent="jrEgK30Qe1zSZla3EbFV-31">
          <mxGeometry y="78" width="205" height="26" as="geometry" />
        </mxCell>
        <mxCell id="jrEgK30Qe1zSZla3EbFV-35" value="+ rs_desc: varchar(2048)" style="text;html=1;strokeColor=none;fillColor=none;align=left;verticalAlign=top;spacingLeft=4;spacingRight=4;whiteSpace=wrap;overflow=hidden;rotatable=0;points=[[0,0.5],[1,0.5]];portConstraint=eastwest;" vertex="1" parent="jrEgK30Qe1zSZla3EbFV-31">
          <mxGeometry y="104" width="205" height="26" as="geometry" />
        </mxCell>
        <mxCell id="jrEgK30Qe1zSZla3EbFV-36" value="+ rs_events: varchar(1024)" style="text;html=1;strokeColor=none;fillColor=none;align=left;verticalAlign=top;spacingLeft=4;spacingRight=4;whiteSpace=wrap;overflow=hidden;rotatable=0;points=[[0,0.5],[1,0.5]];portConstraint=eastwest;" vertex="1" parent="jrEgK30Qe1zSZla3EbFV-31">
          <mxGeometry y="130" width="205" height="26" as="geometry" />
        </mxCell>
        <mxCell id="jrEgK30Qe1zSZla3EbFV-37" value="" style="line;html=1;strokeWidth=1;fillColor=none;align=left;verticalAlign=middle;spacingTop=-1;spacingLeft=3;spacingRight=3;rotatable=0;labelPosition=right;points=[];portConstraint=eastwest;" vertex="1" parent="jrEgK30Qe1zSZla3EbFV-31">
          <mxGeometry y="156" width="205" height="8" as="geometry" />
        </mxCell>
        <mxCell id="jrEgK30Qe1zSZla3EbFV-38" value="+ gmt_create: timestamp" style="text;html=1;strokeColor=none;fillColor=none;align=left;verticalAlign=top;spacingLeft=4;spacingRight=4;whiteSpace=wrap;overflow=hidden;rotatable=0;points=[[0,0.5],[1,0.5]];portConstraint=eastwest;" vertex="1" parent="jrEgK30Qe1zSZla3EbFV-31">
          <mxGeometry y="164" width="205" height="26" as="geometry" />
        </mxCell>
        <mxCell id="jrEgK30Qe1zSZla3EbFV-39" value="+ gmt_modified: timestamp" style="text;html=1;strokeColor=none;fillColor=none;align=left;verticalAlign=top;spacingLeft=4;spacingRight=4;whiteSpace=wrap;overflow=hidden;rotatable=0;points=[[0,0.5],[1,0.5]];portConstraint=eastwest;" vertex="1" parent="jrEgK30Qe1zSZla3EbFV-31">
          <mxGeometry y="190" width="205" height="26" as="geometry" />
        </mxCell>
        <mxCell id="jrEgK30Qe1zSZla3EbFV-40" value="+ creator: varchar(256)" style="text;html=1;strokeColor=none;fillColor=none;align=left;verticalAlign=top;spacingLeft=4;spacingRight=4;whiteSpace=wrap;overflow=hidden;rotatable=0;points=[[0,0.5],[1,0.5]];portConstraint=eastwest;" vertex="1" parent="jrEgK30Qe1zSZla3EbFV-31">
          <mxGeometry y="216" width="205" height="26" as="geometry" />
        </mxCell>
        <mxCell id="jrEgK30Qe1zSZla3EbFV-41" value="+ modifer: varchar(256)" style="text;html=1;strokeColor=none;fillColor=none;align=left;verticalAlign=top;spacingLeft=4;spacingRight=4;whiteSpace=wrap;overflow=hidden;rotatable=0;points=[[0,0.5],[1,0.5]];portConstraint=eastwest;" vertex="1" parent="jrEgK30Qe1zSZla3EbFV-31">
          <mxGeometry y="242" width="205" height="26" as="geometry" />
        </mxCell>
        <mxCell id="jrEgK30Qe1zSZla3EbFV-42" style="edgeStyle=orthogonalEdgeStyle;rounded=0;html=1;labelBackgroundColor=none;startArrow=none;startFill=0;startSize=8;endArrow=none;endFill=0;endSize=16;fontFamily=Verdana;fontSize=12;exitX=0;exitY=0.5;exitDx=0;exitDy=0;entryX=1;entryY=0.5;entryDx=0;entryDy=0;" edge="1" parent="1" source="jrEgK30Qe1zSZla3EbFV-32" target="jrEgK30Qe1zSZla3EbFV-22">
          <mxGeometry relative="1" as="geometry">
            <Array as="points">
              <mxPoint x="460" y="490" />
            </Array>
            <mxPoint x="420" y="350" as="sourcePoint" />
            <mxPoint x="270" y="460" as="targetPoint" />
          </mxGeometry>
        </mxCell>
        <mxCell id="jrEgK30Qe1zSZla3EbFV-43" value="&lt;b&gt;&lt;font style=&quot;font-size: 14px&quot;&gt;n&lt;/font&gt;&lt;/b&gt;" style="text;html=1;resizable=0;points=[];align=center;verticalAlign=middle;labelBackgroundColor=#ffffff;fontSize=12;fontFamily=Verdana;fontColor=#FF3333;" vertex="1" connectable="0" parent="jrEgK30Qe1zSZla3EbFV-42">
          <mxGeometry x="0.8917" y="-1" relative="1" as="geometry">
            <mxPoint y="-2" as="offset" />
          </mxGeometry>
        </mxCell>
        <mxCell id="jrEgK30Qe1zSZla3EbFV-44" value="&lt;b&gt;&lt;font style=&quot;font-size: 14px&quot;&gt;1&lt;/font&gt;&lt;/b&gt;" style="text;html=1;resizable=0;points=[];align=center;verticalAlign=middle;labelBackgroundColor=#ffffff;fontSize=12;fontFamily=Verdana;fontColor=#FF3333;" vertex="1" connectable="0" parent="1">
          <mxGeometry x="249" y="500" as="geometry">
            <mxPoint x="188" y="-13" as="offset" />
          </mxGeometry>
        </mxCell>
        <mxCell id="jrEgK30Qe1zSZla3EbFV-45" value="atlas_feature" style="swimlane;html=1;fontStyle=1;align=center;verticalAlign=top;childLayout=stackLayout;horizontal=1;startSize=26;horizontalStack=0;resizeParent=1;resizeLast=0;collapsible=1;marginBottom=0;swimlaneFillColor=#ffffff;rounded=0;shadow=0;comic=0;labelBackgroundColor=none;strokeWidth=1;fillColor=none;fontFamily=Verdana;fontSize=12" vertex="1" parent="1">
          <mxGeometry x="-290" y="453" width="160" height="108" as="geometry" />
        </mxCell>
        <mxCell id="jrEgK30Qe1zSZla3EbFV-46" value="................" style="text;html=1;strokeColor=none;fillColor=none;align=left;verticalAlign=top;spacingLeft=4;spacingRight=4;whiteSpace=wrap;overflow=hidden;rotatable=0;points=[[0,0.5],[1,0.5]];portConstraint=eastwest;" vertex="1" parent="jrEgK30Qe1zSZla3EbFV-45">
          <mxGeometry y="26" width="160" height="26" as="geometry" />
        </mxCell>
        <mxCell id="jrEgK30Qe1zSZla3EbFV-47" value="+ f_uuid: bigint(20)" style="text;html=1;strokeColor=none;fillColor=none;align=left;verticalAlign=top;spacingLeft=4;spacingRight=4;whiteSpace=wrap;overflow=hidden;rotatable=0;points=[[0,0.5],[1,0.5]];portConstraint=eastwest;" vertex="1" parent="jrEgK30Qe1zSZla3EbFV-45">
          <mxGeometry y="52" width="160" height="26" as="geometry" />
        </mxCell>
        <mxCell id="jrEgK30Qe1zSZla3EbFV-48" value="................" style="text;html=1;strokeColor=none;fillColor=none;align=left;verticalAlign=top;spacingLeft=4;spacingRight=4;whiteSpace=wrap;overflow=hidden;rotatable=0;points=[[0,0.5],[1,0.5]];portConstraint=eastwest;" vertex="1" parent="jrEgK30Qe1zSZla3EbFV-45">
          <mxGeometry y="78" width="160" height="26" as="geometry" />
        </mxCell>
        <mxCell id="jrEgK30Qe1zSZla3EbFV-49" style="edgeStyle=orthogonalEdgeStyle;rounded=0;html=1;labelBackgroundColor=none;startArrow=none;startFill=0;startSize=8;endArrow=none;endFill=0;endSize=16;fontFamily=Verdana;fontSize=12;exitX=0;exitY=0.5;exitDx=0;exitDy=0;entryX=1;entryY=0.5;entryDx=0;entryDy=0;" edge="1" parent="1" source="jrEgK30Qe1zSZla3EbFV-23" target="jrEgK30Qe1zSZla3EbFV-47">
          <mxGeometry relative="1" as="geometry">
            <Array as="points">
              <mxPoint x="21" y="518" />
            </Array>
            <mxPoint x="470" y="502" as="sourcePoint" />
            <mxPoint x="236" y="500" as="targetPoint" />
          </mxGeometry>
        </mxCell>
        <mxCell id="jrEgK30Qe1zSZla3EbFV-50" value="&lt;b&gt;&lt;font style=&quot;font-size: 14px&quot;&gt;1&lt;/font&gt;&lt;/b&gt;" style="text;html=1;resizable=0;points=[];align=center;verticalAlign=middle;labelBackgroundColor=#ffffff;fontSize=12;fontFamily=Verdana;fontColor=#FF3333;" vertex="1" connectable="0" parent="jrEgK30Qe1zSZla3EbFV-49">
          <mxGeometry x="0.8917" y="-1" relative="1" as="geometry">
            <mxPoint x="12" y="-1" as="offset" />
          </mxGeometry>
        </mxCell>
        <mxCell id="jrEgK30Qe1zSZla3EbFV-51" value="&lt;b&gt;&lt;font style=&quot;font-size: 14px&quot;&gt;1&lt;/font&gt;&lt;/b&gt;" style="text;html=1;resizable=0;points=[];align=center;verticalAlign=middle;labelBackgroundColor=#ffffff;fontSize=12;fontFamily=Verdana;fontColor=#FF3333;" vertex="1" connectable="0" parent="1">
          <mxGeometry x="-107" y="528" as="geometry">
            <mxPoint x="106" y="-12" as="offset" />
          </mxGeometry>
        </mxCell>
        <mxCell id="jrEgK30Qe1zSZla3EbFV-52" value="atlas_event_rule_set_rel" style="swimlane;html=1;fontStyle=1;align=center;verticalAlign=top;childLayout=stackLayout;horizontal=1;startSize=26;horizontalStack=0;resizeParent=1;resizeLast=0;collapsible=1;marginBottom=0;swimlaneFillColor=#ffffff;rounded=0;shadow=0;comic=0;labelBackgroundColor=none;strokeWidth=1;fillColor=none;fontFamily=Verdana;fontSize=12" vertex="1" parent="1">
          <mxGeometry x="130" y="140" width="216.5" height="242" as="geometry" />
        </mxCell>
        <mxCell id="jrEgK30Qe1zSZla3EbFV-53" value="+ id: bigint(20)" style="text;html=1;strokeColor=none;fillColor=none;align=left;verticalAlign=top;spacingLeft=4;spacingRight=4;whiteSpace=wrap;overflow=hidden;rotatable=0;points=[[0,0.5],[1,0.5]];portConstraint=eastwest;" vertex="1" parent="jrEgK30Qe1zSZla3EbFV-52">
          <mxGeometry y="26" width="216.5" height="26" as="geometry" />
        </mxCell>
        <mxCell id="jrEgK30Qe1zSZla3EbFV-54" value="+ e_id: bigint(20)" style="text;html=1;strokeColor=none;fillColor=none;align=left;verticalAlign=top;spacingLeft=4;spacingRight=4;whiteSpace=wrap;overflow=hidden;rotatable=0;points=[[0,0.5],[1,0.5]];portConstraint=eastwest;" vertex="1" parent="jrEgK30Qe1zSZla3EbFV-52">
          <mxGeometry y="52" width="216.5" height="26" as="geometry" />
        </mxCell>
        <mxCell id="jrEgK30Qe1zSZla3EbFV-55" value="+ rs_id: bigint(20)" style="text;html=1;strokeColor=none;fillColor=none;align=left;verticalAlign=top;spacingLeft=4;spacingRight=4;whiteSpace=wrap;overflow=hidden;rotatable=0;points=[[0,0.5],[1,0.5]];portConstraint=eastwest;" vertex="1" parent="jrEgK30Qe1zSZla3EbFV-52">
          <mxGeometry y="78" width="216.5" height="26" as="geometry" />
        </mxCell>
        <mxCell id="jrEgK30Qe1zSZla3EbFV-56" value="" style="line;html=1;strokeWidth=1;fillColor=none;align=left;verticalAlign=middle;spacingTop=-1;spacingLeft=3;spacingRight=3;rotatable=0;labelPosition=right;points=[];portConstraint=eastwest;" vertex="1" parent="jrEgK30Qe1zSZla3EbFV-52">
          <mxGeometry y="104" width="216.5" height="8" as="geometry" />
        </mxCell>
        <mxCell id="jrEgK30Qe1zSZla3EbFV-57" value="+ gmt_create: timestamp" style="text;html=1;strokeColor=none;fillColor=none;align=left;verticalAlign=top;spacingLeft=4;spacingRight=4;whiteSpace=wrap;overflow=hidden;rotatable=0;points=[[0,0.5],[1,0.5]];portConstraint=eastwest;" vertex="1" parent="jrEgK30Qe1zSZla3EbFV-52">
          <mxGeometry y="112" width="216.5" height="26" as="geometry" />
        </mxCell>
        <mxCell id="jrEgK30Qe1zSZla3EbFV-58" value="+ gmt_create: timestamp" style="text;html=1;strokeColor=none;fillColor=none;align=left;verticalAlign=top;spacingLeft=4;spacingRight=4;whiteSpace=wrap;overflow=hidden;rotatable=0;points=[[0,0.5],[1,0.5]];portConstraint=eastwest;" vertex="1" parent="jrEgK30Qe1zSZla3EbFV-52">
          <mxGeometry y="138" width="216.5" height="26" as="geometry" />
        </mxCell>
        <mxCell id="jrEgK30Qe1zSZla3EbFV-59" value="+ gmt_modified: timestamp" style="text;html=1;strokeColor=none;fillColor=none;align=left;verticalAlign=top;spacingLeft=4;spacingRight=4;whiteSpace=wrap;overflow=hidden;rotatable=0;points=[[0,0.5],[1,0.5]];portConstraint=eastwest;" vertex="1" parent="jrEgK30Qe1zSZla3EbFV-52">
          <mxGeometry y="164" width="216.5" height="26" as="geometry" />
        </mxCell>
        <mxCell id="jrEgK30Qe1zSZla3EbFV-60" value="+ creator: varchar(256)" style="text;html=1;strokeColor=none;fillColor=none;align=left;verticalAlign=top;spacingLeft=4;spacingRight=4;whiteSpace=wrap;overflow=hidden;rotatable=0;points=[[0,0.5],[1,0.5]];portConstraint=eastwest;" vertex="1" parent="jrEgK30Qe1zSZla3EbFV-52">
          <mxGeometry y="190" width="216.5" height="26" as="geometry" />
        </mxCell>
        <mxCell id="jrEgK30Qe1zSZla3EbFV-61" value="+ modifier: varchar(256)" style="text;html=1;strokeColor=none;fillColor=none;align=left;verticalAlign=top;spacingLeft=4;spacingRight=4;whiteSpace=wrap;overflow=hidden;rotatable=0;points=[[0,0.5],[1,0.5]];portConstraint=eastwest;" vertex="1" parent="jrEgK30Qe1zSZla3EbFV-52">
          <mxGeometry y="216" width="216.5" height="26" as="geometry" />
        </mxCell>
        <mxCell id="jrEgK30Qe1zSZla3EbFV-62" style="edgeStyle=orthogonalEdgeStyle;rounded=0;html=1;labelBackgroundColor=none;startArrow=none;startFill=0;startSize=8;endArrow=none;endFill=0;endSize=16;fontFamily=Verdana;fontSize=12;exitX=0;exitY=0.5;exitDx=0;exitDy=0;entryX=0;entryY=0.5;entryDx=0;entryDy=0;" edge="1" parent="1" source="jrEgK30Qe1zSZla3EbFV-54" target="jrEgK30Qe1zSZla3EbFV-4">
          <mxGeometry relative="1" as="geometry">
            <Array as="points">
              <mxPoint x="-80" y="205" />
              <mxPoint x="-80" y="31" />
            </Array>
            <mxPoint x="-40" y="110" as="sourcePoint" />
            <mxPoint x="-250" y="120" as="targetPoint" />
          </mxGeometry>
        </mxCell>
        <mxCell id="jrEgK30Qe1zSZla3EbFV-63" value="&lt;b&gt;&lt;font style=&quot;font-size: 14px&quot;&gt;m&lt;/font&gt;&lt;/b&gt;" style="text;html=1;resizable=0;points=[];align=center;verticalAlign=middle;labelBackgroundColor=#ffffff;fontSize=12;fontFamily=Verdana;fontColor=#FF3333;" vertex="1" connectable="0" parent="jrEgK30Qe1zSZla3EbFV-62">
          <mxGeometry x="0.8917" y="-1" relative="1" as="geometry">
            <mxPoint y="-2" as="offset" />
          </mxGeometry>
        </mxCell>
        <mxCell id="jrEgK30Qe1zSZla3EbFV-64" style="edgeStyle=orthogonalEdgeStyle;rounded=0;html=1;labelBackgroundColor=none;startArrow=none;startFill=0;startSize=8;endArrow=none;endFill=0;endSize=16;fontFamily=Verdana;fontSize=12;entryX=1;entryY=0.5;entryDx=0;entryDy=0;exitX=1;exitY=0.5;exitDx=0;exitDy=0;" edge="1" parent="1" source="jrEgK30Qe1zSZla3EbFV-32" target="jrEgK30Qe1zSZla3EbFV-55">
          <mxGeometry relative="1" as="geometry">
            <Array as="points">
              <mxPoint x="690" y="492" />
              <mxPoint x="690" y="380" />
              <mxPoint x="380" y="380" />
              <mxPoint x="380" y="231" />
            </Array>
            <mxPoint x="670" y="492" as="sourcePoint" />
            <mxPoint x="370" y="228" as="targetPoint" />
          </mxGeometry>
        </mxCell>
        <mxCell id="jrEgK30Qe1zSZla3EbFV-65" value="&lt;b&gt;&lt;font style=&quot;font-size: 14px&quot;&gt;n&lt;/font&gt;&lt;/b&gt;" style="text;html=1;resizable=0;points=[];align=center;verticalAlign=middle;labelBackgroundColor=#ffffff;fontSize=12;fontFamily=Verdana;fontColor=#FF3333;" vertex="1" connectable="0" parent="1">
          <mxGeometry x="249" y="489" as="geometry">
            <mxPoint x="428" y="-3" as="offset" />
          </mxGeometry>
        </mxCell>
      </root>
    </mxGraphModel>
  </diagram>
</mxfile>
